<svg width="43" height="43" viewBox="0 0 43 43" fill="none" xmlns="http://www.w3.org/2000/svg">
<circle cx="21.5" cy="21.5001" r="21.5" fill="#3D3D3D"/>
<path d="M31.3397 15.2705L15.2704 31.3399C14.7214 31.8889 13.8007 31.8788 13.2395 31.3176C12.6782 30.7564 12.6681 29.8357 13.2172 29.2866L29.2865 13.2173C29.8355 12.6683 30.7562 12.6784 31.3174 13.2396C31.8787 13.8008 31.8888 14.7215 31.3397 15.2705Z" fill="white"/>
<path d="M31.518 31.5182C30.969 32.0672 30.0483 32.0571 29.4871 31.4959L13.0611 15.07C12.4999 14.5087 12.4898 13.588 13.0388 13.039C13.5879 12.49 14.5086 12.5001 15.0698 13.0613L31.4957 29.4872C32.0569 30.0485 32.067 30.9692 31.518 31.5182Z" fill="white"/>
</svg>
